<?xml version="1.0" standalone="no"?>
<!DOCTYPE svg PUBLIC "-//W3C//DTD SVG 20010904//EN"
 "http://www.w3.org/TR/2001/REC-SVG-20010904/DTD/svg10.dtd">
<svg version="1.0" xmlns="http://www.w3.org/2000/svg"
 width="329.000000pt" height="329.000000pt" viewBox="0 0 329.000000 329.000000"
 preserveAspectRatio="xMidYMid meet">
<metadata>
Created by potrace 1.11, written by Peter Selinger 2001-2013
</metadata>
<g transform="translate(0.000000,329.000000) scale(0.100000,-0.100000)"
fill="#000000" stroke="none">
<path d="M1597 2789 c-457 -48 -853 -386 -972 -830 -28 -104 -48 -276 -41
-341 3 -24 8 -69 11 -100 10 -90 51 -233 95 -325 235 -501 788 -761 1319 -618
525 141 886 659 831 1192 -29 276 -153 532 -348 715 -69 65 -172 140 -202 146
-8 2 -18 9 -22 16 -6 11 -31 23 -143 72 -16 7 -33 10 -37 8 -4 -3 -8 -1 -8 4
0 8 -85 34 -120 37 -9 0 -20 4 -26 8 -11 6 -216 28 -244 26 -8 -1 -50 -5 -93
-10z"/>
</g>
</svg>
